<?xml version="1.0" encoding="utf-8"?>
<!-- Generator: Adobe Illustrator 20.0.0, SVG Export Plug-In . SVG Version: 6.00 Build 0)  -->
<svg version="1.2" baseProfile="tiny" id="LOGO" xmlns="http://www.w3.org/2000/svg" xmlns:xlink="http://www.w3.org/1999/xlink"
	 x="0px" y="0px" viewBox="0 0 212.6 212.6" xml:space="preserve">
<g>
	<circle fill="#FFFFFF" cx="187.1" cy="202.7" r="9.9"/>
	<g>
		<polygon fill="#FFFFFF" points="99,122.6 95.7,131.1 102.4,131.1 102.2,130.7 		"/>
		<path fill="#FFFFFF" d="M212.6,106.3C212.6,47.6,165,0,106.3,0C47.6,0,0,47.6,0,106.3C0,165,47.6,212.6,106.3,212.6
			C165,212.6,212.6,165,212.6,106.3z M103,74.8c0-0.1,0.1-0.3,0.1-0.4c0.1-0.1,0.2-0.1,0.4-0.1h6c0.1,0,0.3,0.1,0.4,0.1
			c0.1,0.1,0.1,0.2,0.1,0.4v25.7c0,0.1-0.1,0.3-0.1,0.4c-0.1,0.1-0.2,0.2-0.4,0.2h-6c-0.1,0-0.3-0.1-0.4-0.1
			c-0.1-0.1-0.1-0.2-0.1-0.4V74.8z M54.6,79.8c0,0.1-0.1,0.3-0.2,0.4c-0.1,0.1-0.2,0.1-0.4,0.1h-7.6v20.1c0,0.1-0.1,0.3-0.1,0.4
			c-0.1,0.1-0.2,0.2-0.4,0.2h-6c-0.1,0-0.3-0.1-0.4-0.2c-0.1-0.1-0.2-0.2-0.2-0.4V80.3h-0.3h-7.4c-0.1,0-0.3-0.1-0.4-0.1
			c-0.1-0.1-0.1-0.2-0.1-0.4v-5.1c0-0.1,0.1-0.3,0.1-0.4c0.1-0.1,0.2-0.1,0.4-0.1h22.3c0.1,0,0.3,0.1,0.4,0.2
			c0.1,0.1,0.1,0.2,0.1,0.4V79.8z M76.4,132.1c0,3.4-0.8,5.7-2.6,7.5c-1.7,1.7-4.2,2.7-7.3,2.7v-0.5l0,0.5c-4.3,0-7.1-1.7-8.9-3.9
			c-0.2-0.2-0.2-0.5,0-0.7l3.8-3.6c0.1-0.1,0.2-0.1,0.4-0.1c0.1,0,0.3,0.1,0.4,0.2c1.2,1.2,2.4,2,3.9,2c0,0,0,0,0.1,0v0
			c1,0,1.9-0.4,2.4-1c0.6-0.7,0.9-1.7,0.9-3v-16.4c0-0.1,0.1-0.3,0.1-0.4c0.1-0.1,0.2-0.2,0.4-0.2h6c0.1,0,0.3,0.1,0.4,0.2
			c0.1,0.1,0.1,0.2,0.1,0.4V132.1z M82.3,100.8c-0.1-0.1-0.2-0.2-0.1-0.4l0-9.8H72v9.8c0,0.1-0.1,0.3-0.1,0.4
			c-0.1,0.1-0.2,0.1-0.4,0.1h-6c-0.1,0-0.3-0.1-0.4-0.1c-0.1-0.1-0.1-0.2-0.1-0.4V74.8c0-0.1,0.1-0.3,0.1-0.4
			c0.1-0.1,0.2-0.1,0.4-0.1h6c0.3,0,0.5,0.2,0.5,0.5l0,9.7h10.2v-9.7c0-0.1,0.1-0.3,0.1-0.4c0.1-0.1,0.2-0.1,0.4-0.1h6
			c0.1,0,0.3,0.1,0.4,0.2c0.1,0.1,0.1,0.2,0.1,0.4v25.7c0,0.1-0.1,0.3-0.1,0.4c-0.1,0.1-0.2,0.2-0.4,0.2h-6
			C82.5,100.9,82.4,100.9,82.3,100.8z M113.4,141.6c-0.1,0.1-0.3,0.2-0.4,0.2h-6.4c-0.2,0-0.4-0.1-0.5-0.3l-1.9-4.5H93.4l-1.8,4.5
			c-0.1,0.2-0.3,0.3-0.5,0.3h-6.2c-0.2,0-0.3-0.1-0.4-0.2c-0.1-0.1-0.1-0.3,0-0.5l10.9-25.8c0.1-0.2,0.3-0.3,0.5-0.3h6.2
			c0.2,0,0.4,0.1,0.5,0.3l10.9,25.8C113.5,141.3,113.5,141.4,113.4,141.6z M122.9,74.8c0-0.3,0.2-0.5,0.5-0.5h5.9
			c0.2,0,0.3,0.1,0.4,0.2l11.4,14.7V74.8c0-0.1,0.1-0.3,0.2-0.4c0.1-0.1,0.2-0.1,0.4-0.1h5.9c0.1,0,0.3,0.1,0.4,0.1
			c0.1,0.1,0.2,0.2,0.2,0.4v25.7c0,0.1-0.1,0.3-0.2,0.4c-0.1,0.1-0.2,0.1-0.4,0.1h-5.5c-0.2,0-0.3-0.1-0.4-0.2l-11.8-15.2v14.9
			c0,0.1-0.1,0.3-0.1,0.4c-0.1,0.1-0.2,0.1-0.4,0.1h-5.9c-0.1,0-0.3-0.1-0.4-0.1c-0.1-0.1-0.2-0.2-0.2-0.4L122.9,74.8z M151.3,141.3
			c0,0.1-0.1,0.3-0.2,0.4c-0.1,0.1-0.2,0.1-0.4,0.1h-6c-0.1,0-0.3-0.1-0.4-0.1c-0.1-0.1-0.2-0.2-0.2-0.4v-15.7l-6.9,10.5
			c-0.1,0.1-0.3,0.2-0.4,0.2c-0.2,0-0.3-0.1-0.4-0.2l-6.8-10.4v15.6c0,0.1-0.1,0.3-0.2,0.4c-0.1,0.1-0.2,0.2-0.4,0.2h-5.8
			c-0.1,0-0.3-0.1-0.4-0.2c-0.1-0.1-0.2-0.2-0.2-0.4v-25.7c0-0.1,0.1-0.3,0.2-0.4c0.1-0.1,0.2-0.1,0.4-0.1h6.8
			c0.2,0,0.3,0.1,0.4,0.2l6.5,10.5l6.5-10.5c0.1-0.2,0.3-0.2,0.4-0.2h6.8c0.1,0,0.3,0.1,0.4,0.1c0.1,0.1,0.2,0.2,0.2,0.4V141.3z
			 M176.6,100.7l-6.8-10l-3,3.4v6.4c0,0.1-0.1,0.3-0.1,0.4c-0.1,0.1-0.2,0.2-0.4,0.2h-6c-0.1,0-0.3-0.1-0.4-0.1
			c-0.1-0.1-0.2-0.2-0.2-0.4V74.8c0-0.1,0.1-0.3,0.2-0.4s0.2-0.1,0.4-0.1h6c0.1,0,0.3,0.1,0.4,0.1c0.1,0.1,0.2,0.2,0.2,0.4l0,11
			l9.6-11.3c0.1-0.1,0.2-0.2,0.4-0.2h6.9c0.2,0,0.4,0.1,0.5,0.3c0.1,0.2,0.1,0.4-0.1,0.5l-9.3,10.6l9.9,14.5c0.1,0.2,0.1,0.4,0,0.5
			c-0.1,0.2-0.3,0.3-0.5,0.3H177C176.8,100.9,176.7,100.8,176.6,100.7z"/>
	</g>
</g>
</svg>
